<?xml version="1.0" standalone="no"?><!DOCTYPE svg PUBLIC "-//W3C//DTD SVG 1.1//EN" "http://www.w3.org/Graphics/SVG/1.1/DTD/svg11.dtd"><svg t="1605759631727" class="icon" viewBox="0 0 1489 1024" version="1.1" xmlns="http://www.w3.org/2000/svg" p-id="5994" width="23.265625" height="16" xmlns:xlink="http://www.w3.org/1999/xlink"><defs><style type="text/css"></style></defs><path d="M33.885091 20.293818h1421.684364V968.145455H33.885091z" fill="#E72D14" p-id="5995"></path><path d="M274.152727 135.447273l30.533818 87.970909H399.36l-77.824 57.530182 30.440727 91.415272-77.917091-57.530181L196.421818 372.363636l30.440727-91.415272L148.945455 223.418182h94.766545l30.440727-87.970909z m324.980364 179.386182l10.24 26.996363h26.996364l-23.645091 17.035637 10.146909 26.996363-23.738182-16.849454-23.645091 16.849454 10.146909-26.996363-23.738182-16.942546h30.533818l6.702546-27.089454zM629.666909 186.181818l-13.591273 23.738182 20.293819 20.293818-26.996364-3.444363-13.591273 27.089454-3.351273-30.440727-30.533818-3.351273 27.089455-13.591273-6.702546-26.996363 20.293819 20.200727 26.996363-13.498182zM473.832727 101.469091l26.996364 10.24L521.309091 87.970909l-3.351273 30.533818 26.996364 10.146909-26.996364 6.795637-3.444363 26.996363-13.498182-23.645091-30.440728 6.795637 20.293819-20.386909-16.942546-23.645091z m0 325.073454l26.996364 10.14691 20.386909-23.738182-3.351273 30.533818 26.996364 10.146909-26.996364 6.702545-3.444363 30.533819-13.498182-27.089455-30.440727 10.146909 20.293818-23.738182-16.942546-23.645091z" fill="#FFD700" p-id="5996"></path></svg>