<?xml version="1.0" standalone="no"?><!DOCTYPE svg PUBLIC "-//W3C//DTD SVG 1.1//EN" "http://www.w3.org/Graphics/SVG/1.1/DTD/svg11.dtd"><svg t="1605760324597" class="icon" viewBox="0 0 1501 1024" version="1.1" xmlns="http://www.w3.org/2000/svg" p-id="11826" xmlns:xlink="http://www.w3.org/1999/xlink" width="23.453125" height="16"><defs><style type="text/css"></style></defs><path d="M0 1012.1216h1501.0304V11.8272H0.0512l-0.0512 1000.2944z" fill="#00458F" p-id="11827"></path><path d="M599.6544 11.8272v349.8496H0v300.4928H599.6544v349.952h300.4928v-349.952h599.6544V361.6768H900.1984V11.8272h-300.544z" fill="#FFFFFF" p-id="11828"></path><path d="M0 11.8272v116.2752l1326.592 884.0192h173.2096V897.024L171.9296 11.8272h-171.9296z" fill="#FFFFFF" p-id="11829"></path><path d="M1327.872 11.8272l-1327.8208 885.248v115.0976h173.2096L1499.5968 128.0512V11.8272h-171.7248z" fill="#FFFFFF" p-id="11830"></path><path d="M662.7328 11.8272v412.928H0v174.4384H662.7328v412.928h174.336v-413.0304h662.7328V424.8576H837.0688V11.8784l-174.336-0.0512z" fill="#CC3440" p-id="11831"></path><path d="M1381.0176 11.8272l-480.8704 320.1536v29.696h74.1376L1499.8528 11.8272h-118.8352z m-1381.0176 0v79.0528l405.504 270.7968h120.0128L0 11.8272z m977.9712 650.3424l521.8304 347.4944v-79.104l-403.0976-268.288h-118.784l0.0512-0.1024z m-456.1408 0L0 1009.664v2.4576h113.8176l485.8368-322.7136v-27.2384h-77.824z" fill="#CC3440" p-id="11832"></path></svg>